<?xml version="1.0" encoding="utf-8"?>
<!-- Generator: Adobe Illustrator 19.1.0, SVG Export Plug-In . SVG Version: 6.00 Build 0)  -->
<svg version="1.1" id="Layer_1" xmlns="http://www.w3.org/2000/svg" xmlns:xlink="http://www.w3.org/1999/xlink" x="0px" y="0px"
	 viewBox="0 0 432 93.6" style="enable-background:new 0 0 432 93.6;" xml:space="preserve">
<style type="text/css">
	.st0{fill:#ED1C24;}
	.st1{fill:#FFFFFF;}
</style>
<g>
	<rect y="-0.2" class="st0" width="432" height="93.4"/>
	<g>
		<path class="st1" d="M33.4,21.2h10.6l16.5,50.6h-9.8l-3.5-10.9H30.3l-3.5,10.9H17L33.4,21.2z M38.7,34.9l-5.8,17.7h11.5L38.7,34.9
			z"/>
		<path class="st1" d="M66.9,21.2h18.4c4.4,0,8.3,1.1,11.7,3.2c3.4,2.1,6.1,5.1,7.9,9c1.8,3.9,2.7,8.1,2.7,12.6
			c0,4.5-0.8,8.6-2.3,12.2c-1.6,3.6-3.5,6.5-6,8.5c-1.7,1.5-4,2.7-6.8,3.6c-2.8,0.9-5.7,1.4-8.8,1.4H66.9V21.2z M77,29.8V63h6.9
			c2.4,0,4.6-0.7,6.5-2c1.9-1.3,3.4-3,4.4-5.2c1.5-3,2.2-6.4,2.2-9.9c0-4.9-1.4-8.8-4.3-11.7c-2.8-2.9-6.5-4.4-10.9-4.4H77z"/>
		<path class="st1" d="M116.4,21.2h18.4c4.4,0,8.3,1.1,11.7,3.2c3.4,2.1,6.1,5.1,7.9,9c1.8,3.9,2.7,8.1,2.7,12.6
			c0,4.5-0.8,8.6-2.3,12.2c-1.6,3.6-3.5,6.5-6,8.5c-1.7,1.5-4,2.7-6.8,3.6c-2.8,0.9-5.7,1.4-8.8,1.4h-16.8V21.2z M126.5,29.8V63h6.9
			c2.4,0,4.6-0.7,6.5-2c1.9-1.3,3.4-3,4.4-5.2c1.5-3,2.2-6.4,2.2-9.9c0-4.9-1.4-8.8-4.3-11.7c-2.8-2.9-6.5-4.4-10.9-4.4H126.5z"/>
		<path class="st1" d="M165.8,21.2h33.9V30h-24v11.4h14.6v8.8h-14.6v12.8h24v8.7h-33.9V21.2z"/>
		<path class="st1" d="M207.9,21.2h11.8l18.8,30.9V21.2h9.9v50.6h-9.2l-21.3-35.3v35.3h-10V21.2z"/>
		<path class="st1" d="M260.3,21.2h18.4c4.4,0,8.3,1.1,11.7,3.2c3.4,2.1,6.1,5.1,7.9,9c1.8,3.9,2.7,8.1,2.7,12.6
			c0,4.5-0.8,8.6-2.3,12.2c-1.6,3.6-3.5,6.5-6,8.5c-1.7,1.5-4,2.7-6.8,3.6c-2.8,0.9-5.7,1.4-8.8,1.4h-16.8V21.2z M270.4,29.8V63h6.9
			c2.4,0,4.6-0.7,6.5-2c1.9-1.3,3.4-3,4.4-5.2c1.5-3,2.2-6.4,2.2-9.9c0-4.9-1.4-8.8-4.3-11.7c-2.8-2.9-6.5-4.4-10.9-4.4H270.4z"/>
		<path class="st1" d="M309.3,21.2h10v30.9c0,3.9,0.9,6.7,2.7,8.7s4.2,2.9,7.3,2.9c2,0,3.7-0.4,5.2-1.2c1.5-0.8,2.7-2,3.7-3.8
			c0.9-1.7,1.4-3.9,1.4-6.6V21.2h10v32.3c0,6.2-1.7,10.9-5.1,14.2s-8.3,5-14.8,5c-3.7,0-7.2-0.6-10.5-1.8c-1.7-0.6-3.2-1.5-4.3-2.5
			c-1.6-1.5-2.9-3.3-4-5.6c-1.1-2.3-1.6-5.3-1.6-9.1V21.2z"/>
		<path class="st1" d="M360.2,21.2h9.3L384.4,40l14.8-18.7h9.5v50.6h-9.5V36.6l-14.8,18.6l-14.9-18.6v35.3h-9.4V21.2z"/>
	</g>
</g>
</svg>
